<svg xmlns="http://www.w3.org/2000/svg" viewBox="0 0 32 32" role="img" aria-label="JonnXor">
  <rect width="32" height="32" rx="7" fill="#07060c"/>
  <g transform="translate(2.9325 22.074) scale(0.0169 -0.0169)">
    <path transform="translate(0 0)" d="M148 0Q108 0 75.5 19.5Q43 39 23.5 71.5Q4 104 4 144L4 231L148 231L148 151Q148 148 149.5 146.5Q151 145 154 145L572 145Q575 145 576.5 146.5Q578 148 578 151L578 720L724 720L724 144Q724 104 704 71.5Q684 39 651.5 19.5Q619 0 580 0Z" fill="#f5e642"/>
    <path transform="translate(780 0)" d="M46 0L46 0L46 45L310 360L46 675L46 720L199 720L406 474L612 720L764 720L764 675L500 360L765 46L765 0L612 0L404 245L199 0Z" fill="#2cffe5"/>
  </g>
</svg>
